<svg width="358" height="110" viewBox="0 0 358 110" fill="none" xmlns="http://www.w3.org/2000/svg">
<g clip-path="url(#clip0_11_155)">
<path d="M52.528 79.8386C46.9461 85.4175 40.0521 88.2625 31.8459 88.2625C25.6636 88.2625 20.6821 86.5955 16.8792 83.2837V110H0V28.7838H16.6346C16.6346 28.7838 25.5524 27.3613 31.8459 27.3613C40.0521 27.3613 46.9461 30.2063 52.528 35.7853C58.11 41.3642 60.9565 48.7212 60.9565 57.8786C60.9565 67.036 58.11 74.2597 52.528 79.8608V79.8386ZM16.6346 57.8786C16.6346 62.2795 17.9467 65.9469 20.4374 68.8141C23.0616 71.6592 26.264 73.0817 30.178 73.0817C34.0921 73.0817 37.3167 71.6592 39.8074 68.8141C42.4316 65.9691 43.7215 62.2795 43.7215 57.8786C43.7215 53.4777 42.4094 49.8103 39.8074 46.9431C37.3167 44.098 34.1143 42.6755 30.178 42.6755C26.2418 42.6755 23.0394 44.098 20.4374 46.9431C17.9467 49.7881 16.6346 53.4777 16.6346 57.8786Z" fill="white"/>
<path d="M141.75 28.7838H158.741V86.9734H141.75V82.7058C137.236 86.3955 131.898 88.2847 125.583 88.2847C117.154 88.2847 109.904 85.4397 103.967 79.6163C98.0288 73.7929 95.0488 66.547 95.0488 57.8786C95.0488 49.2102 98.0288 41.9643 103.967 36.1409C109.904 30.3175 117.154 27.3613 125.583 27.3613C132.588 27.3613 141.75 28.7838 141.75 28.7838ZM137.592 68.1029C140.327 65.1245 141.75 61.5682 141.75 57.523C141.75 49.4547 135.924 43.0312 126.895 43.0312C122.736 43.0312 119.289 44.4537 116.554 47.2987C113.818 50.1437 112.506 53.5888 112.506 57.523C112.506 61.4571 113.93 65.0134 116.665 67.9695C119.4 70.9479 122.847 72.4816 126.895 72.4816C131.298 72.4816 134.856 71.059 137.592 68.0807V68.1029Z" fill="white"/>
<path d="M249.097 44.3424V86.9732H232.217V28.7837H267.933V44.3424H249.097Z" fill="white"/>
<path d="M53.2397 3.84521V19.3817H69.5185V86.9731H86.3755V3.84521H53.2397Z" fill="white"/>
<path d="M285.168 0C291.462 0 296.287 4.8232 296.287 11.1134C296.287 17.4035 291.195 22.0934 285.168 22.0934C279.141 22.0934 274.182 17.1368 274.182 11.1134C274.182 5.08992 279.141 0 285.168 0Z" fill="white"/>
<path d="M293.73 28.7837H276.739V86.9732H293.73V28.7837Z" fill="white"/>
<path d="M320.083 28.7837L328.867 43.6311L337.652 28.7837H356.666L338.363 57.0561L357.978 86.9954H339.075L328.845 70.481L318.749 86.9954H299.734L319.349 57.0561L301.046 28.7837H320.061H320.083Z" fill="white"/>
<path d="M195.323 110H177.51L187.006 86.9508L164.3 28.7612H183.07L196.146 64.7463L209.69 28.7612H227.748L195.301 110H195.323Z" fill="white"/>
</g>
<defs>
<clipPath id="clip0_11_155">
<rect width="358" height="110" fill="white"/>
</clipPath>
</defs>
</svg>
