<svg width="742" height="672" viewBox="0 0 742 672" fill="none" xmlns="http://www.w3.org/2000/svg">
<path d="M406.125 616.085C415.939 655.54 455.197 679.723 493.227 668.904C531.257 658.722 554.566 617.994 544.139 578.539" fill="#231F20"/>
<path d="M375.051 118.8C375.051 118.8 396.917 12.1299 498.959 1.84842C588.246 -7.14789 678.141 56.4688 718.229 141.934C758.924 229.326 753.458 349.491 631.979 418.249C508.07 488.291 364.725 526.204 209.839 521.064C82.8937 516.565 20.9394 434.314 5.14714 352.062C-11.2525 266.597 22.1542 171.493 84.7158 128.439C208.017 44.2596 375.658 118.158 375.658 118.158L375.051 118.8Z" fill="white" stroke="black" stroke-width="0.21" stroke-linejoin="round"/>
<path d="M171.958 414.31C179.894 439.509 204.922 453.078 228.728 444.678C252.535 436.278 265.354 409.787 257.419 384.588C249.483 359.39 224.455 345.821 200.649 354.221C176.842 362.62 164.023 389.111 171.958 414.31Z" fill="#231F20"/>
<path d="M544.302 311.872C552.238 336.744 577.265 350.136 601.072 341.846C624.879 333.555 637.698 307.408 629.762 282.537C621.827 257.665 596.799 244.273 572.992 252.563C549.185 260.854 536.366 287.001 544.302 311.872Z" fill="#231F20"/>
</svg>
