<svg width="1080" height="1920" viewBox="0 0 1080 1920" fill="none" xmlns="http://www.w3.org/2000/svg">
<g clip-path="url(#clip0_752_4481)">
<rect width="1080" height="1920" fill="#0DB14B"/>
<path d="M296.76 -222.678V97.8463C296.76 286.873 143.078 440.677 -45.7994 440.677H-84.0442C-271.122 440.677 -423.71 289.769 -426.525 103.247H-199.404C-196.588 164.456 -145.908 213.454 -84.0442 213.454H-45.7994C17.8635 213.454 69.6384 161.638 69.6384 97.9245V-222.678H296.682M302 -228H64.2419V97.8463C64.2419 158.585 14.8132 208.053 -45.8777 208.053H-84.1223C-144.891 208.053 -194.242 158.585 -194.242 97.8463H-432C-432 289.847 -275.971 446 -84.1223 446H-45.8777C145.971 446 302 289.847 302 97.8463V-228Z" fill="white"/>
<g clip-path="url(#clip1_752_4481)">
<path d="M55.0695 1734.16C54.3727 1734.16 53.7275 1733.7 53.521 1732.97L48.0498 1713.35C47.8175 1712.49 48.3079 1711.59 49.1595 1711.35C50.0112 1711.12 50.9144 1711.61 51.1467 1712.47L56.618 1732.09C56.8502 1732.95 56.3599 1733.85 55.5082 1734.09C55.3534 1734.14 55.2243 1734.14 55.0695 1734.14V1734.16Z" fill="black"/>
<path d="M64.3375 1733.28H64.2859C63.3826 1733.28 62.6858 1732.5 62.7116 1731.62L63.5891 1697.58C63.5891 1696.7 64.3375 1696 65.1892 1696H65.2408C66.1441 1696 66.8409 1696.78 66.8151 1697.66L65.9634 1731.7C65.9634 1732.58 65.215 1733.28 64.3633 1733.28H64.3375Z" fill="black"/>
<path d="M287.524 1776.15C287.524 1776.15 287.266 1776.15 287.137 1776.1C286.286 1775.89 285.744 1775.01 285.95 1774.13L290.802 1754.51C291.009 1753.65 291.912 1753.11 292.763 1753.32C293.615 1753.52 294.157 1754.4 293.951 1755.29L289.099 1774.91C288.918 1775.63 288.247 1776.13 287.524 1776.13V1776.15Z" fill="black"/>
<path d="M278.028 1776.15C277.228 1776.15 276.532 1775.56 276.428 1774.76L272.738 1745.99C272.635 1745.11 273.254 1744.28 274.131 1744.18C275.035 1744.05 275.835 1744.7 275.938 1745.58L279.628 1774.34C279.732 1775.22 279.112 1776.05 278.235 1776.15C278.157 1776.15 278.106 1776.15 278.028 1776.15Z" fill="black"/>
<path d="M152.649 1864C152.649 1864 152.391 1864 152.262 1863.94C151.411 1863.74 150.869 1862.86 151.075 1861.98L155.927 1842.35C156.134 1841.5 157.037 1840.95 157.888 1841.16C158.74 1841.37 159.282 1842.25 159.076 1843.13L154.224 1862.75C154.043 1863.48 153.372 1863.97 152.649 1863.97V1864Z" fill="black"/>
<path d="M143.153 1864C142.353 1864 141.657 1863.4 141.553 1862.6L137.863 1833.84C137.76 1832.96 138.379 1832.13 139.256 1832.02C140.16 1831.89 140.96 1832.54 141.063 1833.42L144.753 1862.19C144.857 1863.07 144.237 1863.89 143.36 1864C143.282 1864 143.231 1864 143.153 1864Z" fill="black"/>
</g>
<g clip-path="url(#clip2_752_4481)">
<path d="M788.07 316.164C787.373 316.164 786.727 315.698 786.521 314.973L781.05 295.348C780.818 294.494 781.308 293.588 782.16 293.355C783.011 293.122 783.914 293.614 784.147 294.468L789.618 314.093C789.85 314.947 789.36 315.853 788.508 316.086C788.353 316.138 788.224 316.138 788.07 316.138V316.164Z" fill="black"/>
<path d="M797.338 315.282H797.286C796.383 315.282 795.686 314.505 795.712 313.625L796.589 279.579C796.589 278.699 797.338 278 798.189 278H798.241C799.144 278 799.841 278.777 799.815 279.657L798.963 313.702C798.963 314.583 798.215 315.282 797.363 315.282H797.338Z" fill="black"/>
<path d="M1020.52 358.152C1020.52 358.152 1020.27 358.152 1020.14 358.101C1019.29 357.894 1018.74 357.013 1018.95 356.133L1023.8 336.508C1024.01 335.654 1024.91 335.11 1025.76 335.318C1026.62 335.525 1027.16 336.405 1026.95 337.285L1022.1 356.91C1021.92 357.635 1021.25 358.127 1020.52 358.127V358.152Z" fill="black"/>
<path d="M1011.03 358.155C1010.23 358.155 1009.53 357.559 1009.43 356.757L1005.74 327.993C1005.63 327.113 1006.25 326.284 1007.13 326.181C1008.03 326.051 1008.83 326.698 1008.94 327.579L1012.63 356.342C1012.73 357.223 1012.11 358.051 1011.23 358.155C1011.16 358.155 1011.11 358.155 1011.03 358.155Z" fill="black"/>
<path d="M885.649 445.996C885.649 445.996 885.391 445.996 885.262 445.944C884.411 445.737 883.869 444.857 884.075 443.977L888.927 424.352C889.134 423.498 890.037 422.954 890.888 423.161C891.74 423.368 892.282 424.249 892.076 425.129L887.224 444.754C887.043 445.478 886.372 445.97 885.649 445.97V445.996Z" fill="black"/>
<path d="M876.153 445.998C875.353 445.998 874.657 445.403 874.553 444.6L870.863 415.837C870.76 414.956 871.379 414.128 872.256 414.024C873.16 413.895 873.96 414.542 874.063 415.422L877.753 444.186C877.857 445.066 877.237 445.895 876.36 445.998C876.282 445.998 876.231 445.998 876.153 445.998Z" fill="black"/>
</g>
<g clip-path="url(#clip3_752_4481)">
<path d="M62.0695 221.164C61.3727 221.164 60.7275 220.698 60.521 219.973L55.0498 200.348C54.8175 199.494 55.3079 198.588 56.1595 198.355C57.0112 198.122 57.9144 198.614 58.1467 199.468L63.618 219.093C63.8502 219.947 63.3599 220.853 62.5082 221.086C62.3534 221.138 62.2243 221.138 62.0695 221.138V221.164Z" fill="black"/>
<path d="M71.3375 220.282H71.2859C70.3826 220.282 69.6858 219.505 69.7116 218.625L70.5891 184.579C70.5891 183.699 71.3375 183 72.1892 183H72.2408C73.1441 183 73.8409 183.777 73.8151 184.657L72.9634 218.702C72.9634 219.583 72.215 220.282 71.3633 220.282H71.3375Z" fill="black"/>
<path d="M294.524 263.152C294.524 263.152 294.266 263.152 294.137 263.101C293.286 262.894 292.744 262.013 292.95 261.133L297.802 241.508C298.009 240.654 298.912 240.11 299.763 240.318C300.615 240.525 301.157 241.405 300.951 242.285L296.099 261.91C295.918 262.635 295.247 263.127 294.524 263.127V263.152Z" fill="black"/>
<path d="M285.028 263.155C284.228 263.155 283.532 262.559 283.428 261.757L279.738 232.993C279.635 232.113 280.254 231.284 281.131 231.181C282.035 231.051 282.835 231.698 282.938 232.579L286.628 261.342C286.732 262.223 286.112 263.051 285.235 263.155C285.157 263.155 285.106 263.155 285.028 263.155Z" fill="black"/>
<path d="M159.649 350.996C159.649 350.996 159.391 350.996 159.262 350.944C158.411 350.737 157.869 349.857 158.075 348.977L162.927 329.352C163.134 328.498 164.037 327.954 164.888 328.161C165.74 328.368 166.282 329.249 166.076 330.129L161.224 349.754C161.043 350.478 160.372 350.97 159.649 350.97V350.996Z" fill="black"/>
<path d="M150.153 350.998C149.353 350.998 148.657 350.403 148.553 349.6L144.863 320.837C144.76 319.956 145.379 319.128 146.256 319.024C147.16 318.895 147.96 319.542 148.063 320.422L151.753 349.186C151.857 350.066 151.237 350.895 150.36 350.998C150.282 350.998 150.231 350.998 150.153 350.998Z" fill="black"/>
</g>
<path d="M1018.44 1716.13C1200.63 1716.13 1348.87 1864.47 1348.87 2046.78V2571.22C1348.87 2753.53 1200.63 2901.87 1018.44 2901.87H981.555C799.368 2901.87 651.13 2753.53 651.13 2571.22V2046.78C651.13 1864.47 799.368 1716.13 981.555 1716.13H1018.44ZM981.555 2682.57H1018.44C1079.85 2682.57 1129.79 2632.59 1129.79 2571.14V2046.78C1129.79 1985.33 1079.85 1935.36 1018.44 1935.36H981.555C920.147 1935.36 870.206 1985.33 870.206 2046.78V2571.22C870.206 2632.67 920.147 2682.64 981.555 2682.64M1018.44 1711H981.555C796.502 1711 646 1861.6 646 2046.78V2571.22C646 2756.32 796.502 2907 981.555 2907H1018.44C1203.5 2907 1354 2756.4 1354 2571.22V2046.78C1354 1861.68 1203.5 1711 1018.44 1711ZM981.555 2677.43C922.938 2677.43 875.336 2629.72 875.336 2571.14V2046.78C875.336 1988.2 923.014 1940.49 981.555 1940.49H1018.44C1076.99 1940.49 1124.66 1988.2 1124.66 2046.78V2571.22C1124.66 2629.8 1076.99 2677.51 1018.44 2677.51H981.555V2677.43Z" fill="white"/>
</g>
<defs>
<clipPath id="clip0_752_4481">
<rect width="1080" height="1920" fill="white"/>
</clipPath>
<clipPath id="clip1_752_4481">
<rect width="246" height="168" fill="white" transform="translate(48 1696)"/>
</clipPath>
<clipPath id="clip2_752_4481">
<rect width="246" height="168" fill="white" transform="translate(781 278)"/>
</clipPath>
<clipPath id="clip3_752_4481">
<rect width="246" height="168" fill="white" transform="translate(55 183)"/>
</clipPath>
</defs>
</svg>
