<svg width="1080" height="1920" viewBox="0 0 1080 1920" fill="none" xmlns="http://www.w3.org/2000/svg">
<g clip-path="url(#clip0_752_3873)">
<rect width="1080" height="1920" fill="#0DB14B"/>
<g clip-path="url(#clip1_752_3873)">
<path d="M794.07 161.164C793.373 161.164 792.727 160.698 792.521 159.973L787.05 140.348C786.818 139.494 787.308 138.588 788.16 138.355C789.011 138.122 789.914 138.614 790.147 139.468L795.618 159.093C795.85 159.947 795.36 160.853 794.508 161.086C794.353 161.138 794.224 161.138 794.07 161.138V161.164Z" fill="black"/>
<path d="M803.338 160.282H803.286C802.383 160.282 801.686 159.505 801.712 158.625L802.589 124.579C802.589 123.699 803.338 123 804.189 123H804.241C805.144 123 805.841 123.777 805.815 124.657L804.963 158.702C804.963 159.583 804.215 160.282 803.363 160.282H803.338Z" fill="black"/>
<path d="M1026.52 203.152C1026.52 203.152 1026.27 203.152 1026.14 203.101C1025.29 202.894 1024.74 202.013 1024.95 201.133L1029.8 181.508C1030.01 180.654 1030.91 180.11 1031.76 180.318C1032.62 180.525 1033.16 181.405 1032.95 182.285L1028.1 201.91C1027.92 202.635 1027.25 203.127 1026.52 203.127V203.152Z" fill="black"/>
<path d="M1017.03 203.155C1016.23 203.155 1015.53 202.559 1015.43 201.757L1011.74 172.993C1011.63 172.113 1012.25 171.284 1013.13 171.181C1014.03 171.051 1014.83 171.698 1014.94 172.579L1018.63 201.342C1018.73 202.223 1018.11 203.051 1017.23 203.155C1017.16 203.155 1017.11 203.155 1017.03 203.155Z" fill="black"/>
<path d="M891.649 290.996C891.649 290.996 891.391 290.996 891.262 290.944C890.411 290.737 889.869 289.857 890.075 288.977L894.927 269.352C895.134 268.498 896.037 267.954 896.888 268.161C897.74 268.368 898.282 269.249 898.076 270.129L893.224 289.754C893.043 290.478 892.372 290.97 891.649 290.97V290.996Z" fill="black"/>
<path d="M882.153 290.998C881.353 290.998 880.657 290.403 880.553 289.6L876.863 260.837C876.76 259.956 877.379 259.128 878.256 259.024C879.16 258.895 879.96 259.542 880.063 260.422L883.753 289.186C883.857 290.066 883.237 290.895 882.36 290.998C882.282 290.998 882.231 290.998 882.153 290.998Z" fill="black"/>
</g>
<g clip-path="url(#clip2_752_3873)">
<path d="M179.524 231.152C179.524 231.152 179.266 231.152 179.137 231.101C178.286 230.894 177.744 230.013 177.95 229.133L182.802 209.508C183.009 208.654 183.912 208.11 184.763 208.318C185.615 208.525 186.157 209.405 185.951 210.285L181.099 229.91C180.918 230.635 180.247 231.127 179.524 231.127V231.152Z" fill="black"/>
<path d="M170.028 231.155C169.228 231.155 168.532 230.559 168.428 229.757L164.738 200.993C164.635 200.113 165.254 199.284 166.131 199.181C167.035 199.051 167.835 199.698 167.938 200.579L171.628 229.342C171.732 230.223 171.112 231.051 170.235 231.155C170.157 231.155 170.106 231.155 170.028 231.155Z" fill="black"/>
<path d="M44.6495 318.996C44.6495 318.996 44.3914 318.996 44.2624 318.944C43.4107 318.737 42.8687 317.857 43.0752 316.977L47.9271 297.352C48.1335 296.498 49.0368 295.954 49.8885 296.161C50.7401 296.368 51.2821 297.249 51.0756 298.129L46.2237 317.754C46.0431 318.478 45.3721 318.97 44.6495 318.97V318.996Z" fill="black"/>
<path d="M35.1534 318.998C34.3534 318.998 33.6565 318.403 33.5533 317.6L29.8628 288.837C29.7596 287.956 30.379 287.128 31.2564 287.024C32.1597 286.895 32.9597 287.542 33.063 288.422L36.7535 317.186C36.8567 318.066 36.2373 318.895 35.3599 318.998C35.2824 318.998 35.2308 318.998 35.1534 318.998Z" fill="black"/>
</g>
<g clip-path="url(#clip3_752_3873)">
<path d="M803.07 1747.16C802.373 1747.16 801.727 1746.7 801.521 1745.97L796.05 1726.35C795.818 1725.49 796.308 1724.59 797.16 1724.35C798.011 1724.12 798.914 1724.61 799.147 1725.47L804.618 1745.09C804.85 1745.95 804.36 1746.85 803.508 1747.09C803.353 1747.14 803.224 1747.14 803.07 1747.14V1747.16Z" fill="black"/>
<path d="M812.338 1746.28H812.286C811.383 1746.28 810.686 1745.5 810.712 1744.62L811.589 1710.58C811.589 1709.7 812.338 1709 813.189 1709H813.241C814.144 1709 814.841 1709.78 814.815 1710.66L813.963 1744.7C813.963 1745.58 813.215 1746.28 812.363 1746.28H812.338Z" fill="black"/>
<path d="M1035.52 1789.15C1035.52 1789.15 1035.27 1789.15 1035.14 1789.1C1034.29 1788.89 1033.74 1788.01 1033.95 1787.13L1038.8 1767.51C1039.01 1766.65 1039.91 1766.11 1040.76 1766.32C1041.62 1766.52 1042.16 1767.4 1041.95 1768.29L1037.1 1787.91C1036.92 1788.63 1036.25 1789.13 1035.52 1789.13V1789.15Z" fill="black"/>
<path d="M1026.03 1789.15C1025.23 1789.15 1024.53 1788.56 1024.43 1787.76L1020.74 1758.99C1020.63 1758.11 1021.25 1757.28 1022.13 1757.18C1023.03 1757.05 1023.83 1757.7 1023.94 1758.58L1027.63 1787.34C1027.73 1788.22 1027.11 1789.05 1026.23 1789.15C1026.16 1789.15 1026.11 1789.15 1026.03 1789.15Z" fill="black"/>
<path d="M900.649 1877C900.649 1877 900.391 1877 900.262 1876.94C899.411 1876.74 898.869 1875.86 899.075 1874.98L903.927 1855.35C904.134 1854.5 905.037 1853.95 905.888 1854.16C906.74 1854.37 907.282 1855.25 907.076 1856.13L902.224 1875.75C902.043 1876.48 901.372 1876.97 900.649 1876.97V1877Z" fill="black"/>
<path d="M891.153 1877C890.353 1877 889.657 1876.4 889.553 1875.6L885.863 1846.84C885.76 1845.96 886.379 1845.13 887.256 1845.02C888.16 1844.89 888.96 1845.54 889.063 1846.42L892.753 1875.19C892.857 1876.07 892.237 1876.89 891.36 1877C891.282 1877 891.231 1877 891.153 1877Z" fill="black"/>
</g>
<g clip-path="url(#clip4_752_3873)">
<path d="M88.5245 1212.15C88.5245 1212.15 88.2664 1212.15 88.1374 1212.1C87.2857 1211.89 86.7437 1211.01 86.9502 1210.13L91.8021 1190.51C92.0085 1189.65 92.9118 1189.11 93.7635 1189.32C94.6151 1189.52 95.1571 1190.4 94.9506 1191.29L90.0987 1210.91C89.9181 1211.63 89.2471 1212.13 88.5245 1212.13V1212.15Z" fill="black"/>
<path d="M79.0284 1212.15C78.2283 1212.15 77.5315 1211.56 77.4283 1210.76L73.7378 1181.99C73.6346 1181.11 74.254 1180.28 75.1314 1180.18C76.0347 1180.05 76.8347 1180.7 76.938 1181.58L80.6285 1210.34C80.7317 1211.22 80.1123 1212.05 79.2349 1212.15C79.1574 1212.15 79.1058 1212.15 79.0284 1212.15Z" fill="black"/>
</g>
</g>
<defs>
<clipPath id="clip0_752_3873">
<rect width="1080" height="1920" fill="white"/>
</clipPath>
<clipPath id="clip1_752_3873">
<rect width="246" height="168" fill="white" transform="translate(787 123)"/>
</clipPath>
<clipPath id="clip2_752_3873">
<rect width="246" height="168" fill="white" transform="translate(-60 151)"/>
</clipPath>
<clipPath id="clip3_752_3873">
<rect width="246" height="168" fill="white" transform="translate(796 1709)"/>
</clipPath>
<clipPath id="clip4_752_3873">
<rect width="246" height="168" fill="white" transform="translate(-151 1132)"/>
</clipPath>
</defs>
</svg>
